<svg width="50" height="50" viewBox="0 0 50 50" xmlns="http://www.w3.org/2000/svg">
<path d="M16 3.00006C8.83248 3.00006 3 8.83254 3 16.0001V34.0001C3 41.1676 8.83248 47.0001 16 47.0001H34C41.1675 47.0001 47 41.1676 47 34.0001V16.0001C47 8.83254 41.1675 3.00006 34 3.00006H16ZM16 5.00006H34C40.0865 5.00006 45 9.91358 45 16.0001V34.0001C45 40.0865 40.0865 45.0001 34 45.0001H16C9.91352 45.0001 5 40.0865 5 34.0001V16.0001C5 9.91358 9.91352 5.00006 16 5.00006ZM37 11.0001C36.4696 11.0001 35.9609 11.2108 35.5858 11.5858C35.2107 11.9609 35 12.4696 35 13.0001C35 13.5305 35.2107 14.0392 35.5858 14.4143C35.9609 14.7893 36.4696 15.0001 37 15.0001C37.5304 15.0001 38.0391 14.7893 38.4142 14.4143C38.7893 14.0392 39 13.5305 39 13.0001C39 12.4696 38.7893 11.9609 38.4142 11.5858C38.0391 11.2108 37.5304 11.0001 37 11.0001ZM25 14.0001C18.9367 14.0001 14 18.9368 14 25.0001C14 31.0633 18.9367 36.0001 25 36.0001C31.0633 36.0001 36 31.0633 36 25.0001C36 18.9368 31.0633 14.0001 25 14.0001ZM25 16.0001C29.9824 16.0001 34 20.0177 34 25.0001C34 29.9825 29.9824 34.0001 25 34.0001C20.0176 34.0001 16 29.9825 16 25.0001C16 20.0177 20.0176 16.0001 25 16.0001Z" />
</svg>
